<svg width="193" height="55" viewBox="0 0 365 55" fill="none" xmlns="http://www.w3.org/2000/svg">
<path d="M0.368 23.84C1.936 23.776 3.088 23.44 3.824 22.832C4.56 22.192 4.928 21.296 4.928 20.144C4.928 19.28 4.768 17.568 4.448 15.008C4.416 14.752 4.32 13.936 4.16 12.56C4 11.152 3.92 9.888 3.92 8.768C3.92 6.048 4.752 3.936 6.416 2.432C8.08 0.895998 10.304 0.127998 13.088 0.127998H16.544V6.848H14.672C13.648 6.848 12.912 7.072 12.464 7.52C12.016 7.968 11.792 8.656 11.792 9.584C11.792 10.288 11.92 11.888 12.176 14.384C12.464 17.488 12.608 19.52 12.608 20.48C12.608 22.24 12.176 23.696 11.312 24.848C10.48 26 9.2 26.736 7.472 27.056V27.152C9.2 27.504 10.48 28.256 11.312 29.408C12.176 30.528 12.608 31.984 12.608 33.776C12.608 34.736 12.464 36.768 12.176 39.872C11.92 42.304 11.792 43.888 11.792 44.624C11.792 45.552 12.016 46.24 12.464 46.688C12.912 47.168 13.648 47.408 14.672 47.408H16.544V54.128H13.088C10.304 54.128 8.08 53.36 6.416 51.824C4.752 50.32 3.92 48.192 3.92 45.44C3.92 44.32 4 43.072 4.16 41.696C4.32 40.288 4.416 39.456 4.448 39.2C4.768 36.64 4.928 34.928 4.928 34.064C4.928 32.976 4.56 32.112 3.824 31.472C3.088 30.8 1.936 30.432 0.368 30.368V23.84ZM51.8251 10.304L40.1611 32.864V44H31.9531V32.864L20.2891 10.304H29.6011L36.1291 24.416L42.6091 10.304H51.8251ZM53.5003 30.56C53.5003 27.808 54.0123 25.392 55.0363 23.312C56.0923 21.232 57.5163 19.632 59.3083 18.512C61.1003 17.392 63.1003 16.832 65.3083 16.832C67.1963 16.832 68.8443 17.216 70.2523 17.984C71.6923 18.752 72.7963 19.76 73.5643 21.008V17.216H81.7723V44H73.5643V40.208C72.7643 41.456 71.6443 42.464 70.2043 43.232C68.7963 44 67.1483 44.384 65.2603 44.384C63.0843 44.384 61.1003 43.824 59.3083 42.704C57.5163 41.552 56.0923 39.936 55.0363 37.856C54.0123 35.744 53.5003 33.312 53.5003 30.56ZM73.5643 30.608C73.5643 28.56 72.9883 26.944 71.8363 25.76C70.7163 24.576 69.3403 23.984 67.7083 23.984C66.0763 23.984 64.6843 24.576 63.5323 25.76C62.4123 26.912 61.8523 28.512 61.8523 30.56C61.8523 32.608 62.4123 34.24 63.5323 35.456C64.6843 36.64 66.0763 37.232 67.7083 37.232C69.3403 37.232 70.7163 36.64 71.8363 35.456C72.9883 34.272 73.5643 32.656 73.5643 30.608ZM95.9184 21.68C96.8784 20.208 98.0784 19.056 99.5184 18.224C100.958 17.36 102.558 16.928 104.318 16.928V25.616H102.062C100.014 25.616 98.4784 26.064 97.4544 26.96C96.4304 27.824 95.9184 29.36 95.9184 31.568V44H87.7104V17.216H95.9184V21.68ZM120.434 44.384C117.81 44.384 115.442 43.824 113.33 42.704C111.25 41.584 109.602 39.984 108.386 37.904C107.202 35.824 106.61 33.392 106.61 30.608C106.61 27.856 107.218 25.44 108.434 23.36C109.65 21.248 111.314 19.632 113.426 18.512C115.538 17.392 117.906 16.832 120.53 16.832C123.154 16.832 125.522 17.392 127.634 18.512C129.746 19.632 131.41 21.248 132.626 23.36C133.842 25.44 134.45 27.856 134.45 30.608C134.45 33.36 133.826 35.792 132.578 37.904C131.362 39.984 129.682 41.584 127.538 42.704C125.426 43.824 123.058 44.384 120.434 44.384ZM120.434 37.28C122.002 37.28 123.33 36.704 124.418 35.552C125.538 34.4 126.098 32.752 126.098 30.608C126.098 28.464 125.554 26.816 124.466 25.664C123.41 24.512 122.098 23.936 120.53 23.936C118.93 23.936 117.602 24.512 116.546 25.664C115.49 26.784 114.962 28.432 114.962 30.608C114.962 32.752 115.474 34.4 116.498 35.552C117.554 36.704 118.866 37.28 120.434 37.28ZM149.7 44.384C147.364 44.384 145.284 43.984 143.46 43.184C141.636 42.384 140.196 41.296 139.14 39.92C138.084 38.512 137.492 36.944 137.364 35.216H145.476C145.572 36.144 146.004 36.896 146.772 37.472C147.54 38.048 148.484 38.336 149.604 38.336C150.628 38.336 151.412 38.144 151.956 37.76C152.532 37.344 152.82 36.816 152.82 36.176C152.82 35.408 152.42 34.848 151.62 34.496C150.82 34.112 149.524 33.696 147.732 33.248C145.812 32.8 144.212 32.336 142.932 31.856C141.652 31.344 140.548 30.56 139.62 29.504C138.692 28.416 138.228 26.96 138.228 25.136C138.228 23.6 138.644 22.208 139.476 20.96C140.34 19.68 141.588 18.672 143.22 17.936C144.884 17.2 146.852 16.832 149.124 16.832C152.484 16.832 155.124 17.664 157.044 19.328C158.996 20.992 160.116 23.2 160.404 25.952H152.82C152.692 25.024 152.276 24.288 151.572 23.744C150.9 23.2 150.004 22.928 148.884 22.928C147.924 22.928 147.188 23.12 146.676 23.504C146.164 23.856 145.908 24.352 145.908 24.992C145.908 25.76 146.308 26.336 147.108 26.72C147.94 27.104 149.22 27.488 150.948 27.872C152.932 28.384 154.548 28.896 155.796 29.408C157.044 29.888 158.132 30.688 159.06 31.808C160.02 32.896 160.516 34.368 160.548 36.224C160.548 37.792 160.1 39.2 159.204 40.448C158.34 41.664 157.076 42.624 155.412 43.328C153.78 44.032 151.876 44.384 149.7 44.384ZM173.778 8.48V44H165.57V8.48H173.778ZM178.094 30.56C178.094 27.808 178.606 25.392 179.63 23.312C180.686 21.232 182.11 19.632 183.902 18.512C185.694 17.392 187.694 16.832 189.902 16.832C191.79 16.832 193.438 17.216 194.846 17.984C196.286 18.752 197.39 19.76 198.158 21.008V17.216H206.366V44H198.158V40.208C197.358 41.456 196.238 42.464 194.798 43.232C193.39 44 191.742 44.384 189.854 44.384C187.678 44.384 185.694 43.824 183.902 42.704C182.11 41.552 180.686 39.936 179.63 37.856C178.606 35.744 178.094 33.312 178.094 30.56ZM198.158 30.608C198.158 28.56 197.582 26.944 196.43 25.76C195.31 24.576 193.934 23.984 192.302 23.984C190.67 23.984 189.278 24.576 188.126 25.76C187.006 26.912 186.446 28.512 186.446 30.56C186.446 32.608 187.006 34.24 188.126 35.456C189.278 36.64 190.67 37.232 192.302 37.232C193.934 37.232 195.31 36.64 196.43 35.456C197.582 34.272 198.158 32.656 198.158 30.608ZM224.352 36.32L230.16 17.216H238.896L229.392 44H219.264L209.76 17.216H218.544L224.352 36.32ZM246.191 44.384C244.751 44.384 243.567 43.968 242.639 43.136C241.743 42.272 241.295 41.216 241.295 39.968C241.295 38.688 241.743 37.616 242.639 36.752C243.567 35.888 244.751 35.456 246.191 35.456C247.599 35.456 248.751 35.888 249.647 36.752C250.575 37.616 251.039 38.688 251.039 39.968C251.039 41.216 250.575 42.272 249.647 43.136C248.751 43.968 247.599 44.384 246.191 44.384ZM254.266 30.56C254.266 27.808 254.778 25.392 255.802 23.312C256.858 21.232 258.282 19.632 260.074 18.512C261.866 17.392 263.866 16.832 266.074 16.832C267.834 16.832 269.434 17.2 270.874 17.936C272.346 18.672 273.498 19.664 274.33 20.912V8.48H282.538V44H274.33V40.16C273.562 41.44 272.458 42.464 271.018 43.232C269.61 44 267.962 44.384 266.074 44.384C263.866 44.384 261.866 43.824 260.074 42.704C258.282 41.552 256.858 39.936 255.802 37.856C254.778 35.744 254.266 33.312 254.266 30.56ZM274.33 30.608C274.33 28.56 273.754 26.944 272.602 25.76C271.482 24.576 270.106 23.984 268.474 23.984C266.842 23.984 265.45 24.576 264.298 25.76C263.178 26.912 262.618 28.512 262.618 30.56C262.618 32.608 263.178 34.24 264.298 35.456C265.45 36.64 266.842 37.232 268.474 37.232C270.106 37.232 271.482 36.64 272.602 35.456C273.754 34.272 274.33 32.656 274.33 30.608ZM313.724 30.176C313.724 30.944 313.676 31.744 313.58 32.576H295.004C295.132 34.24 295.66 35.52 296.588 36.416C297.548 37.28 298.716 37.712 300.092 37.712C302.14 37.712 303.564 36.848 304.364 35.12H313.1C312.652 36.88 311.836 38.464 310.652 39.872C309.5 41.28 308.044 42.384 306.284 43.184C304.524 43.984 302.556 44.384 300.38 44.384C297.756 44.384 295.42 43.824 293.372 42.704C291.324 41.584 289.724 39.984 288.572 37.904C287.42 35.824 286.844 33.392 286.844 30.608C286.844 27.824 287.404 25.392 288.524 23.312C289.676 21.232 291.276 19.632 293.324 18.512C295.372 17.392 297.724 16.832 300.38 16.832C302.972 16.832 305.276 17.376 307.292 18.464C309.308 19.552 310.876 21.104 311.996 23.12C313.148 25.136 313.724 27.488 313.724 30.176ZM305.324 28.016C305.324 26.608 304.844 25.488 303.884 24.656C302.924 23.824 301.724 23.408 300.284 23.408C298.908 23.408 297.74 23.808 296.78 24.608C295.852 25.408 295.276 26.544 295.052 28.016H305.324ZM330.102 36.32L335.91 17.216H344.646L335.142 44H325.014L315.51 17.216H324.294L330.102 36.32ZM364.709 30.368C363.141 30.432 361.989 30.8 361.253 31.472C360.517 32.112 360.149 32.976 360.149 34.064C360.149 34.928 360.309 36.64 360.629 39.2C360.661 39.456 360.757 40.288 360.917 41.696C361.077 43.072 361.157 44.32 361.157 45.44C361.157 48.192 360.325 50.32 358.661 51.824C356.997 53.36 354.773 54.128 351.989 54.128H348.533V47.408H350.405C351.429 47.408 352.165 47.168 352.613 46.688C353.061 46.24 353.285 45.552 353.285 44.624C353.285 43.888 353.157 42.304 352.901 39.872C352.613 36.768 352.469 34.736 352.469 33.776C352.469 31.984 352.885 30.528 353.717 29.408C354.581 28.256 355.877 27.504 357.605 27.152V27.056C355.877 26.736 354.581 26 353.717 24.848C352.885 23.696 352.469 22.24 352.469 20.48C352.469 19.52 352.613 17.488 352.901 14.384C353.157 11.888 353.285 10.288 353.285 9.584C353.285 8.656 353.061 7.968 352.613 7.52C352.165 7.072 351.429 6.848 350.405 6.848H348.533V0.127998H351.989C354.773 0.127998 356.997 0.895998 358.661 2.432C360.325 3.936 361.157 6.048 361.157 8.768C361.157 9.888 361.077 11.152 360.917 12.56C360.757 13.936 360.661 14.752 360.629 15.008C360.309 17.568 360.149 19.28 360.149 20.144C360.149 21.296 360.517 22.192 361.253 22.832C361.989 23.44 363.141 23.776 364.709 23.84V30.368Z" fill="#7D7D7D"/>
</svg>
