<svg width="192" height="114" viewBox="0 0 92 14" fill="none" xmlns="http://www.w3.org/2000/svg">
<path d="M0.0920001 5.96C0.484 5.944 0.772 5.86 0.956 5.708C1.14 5.548 1.232 5.324 1.232 5.036C1.232 4.82 1.192 4.392 1.112 3.752C1.104 3.688 1.08 3.484 1.04 3.14C1 2.788 0.98 2.472 0.98 2.192C0.98 1.512 1.188 0.983999 1.604 0.607999C2.02 0.224 2.576 0.0319996 3.272 0.0319996H4.136V1.712H3.668C3.412 1.712 3.228 1.768 3.116 1.88C3.004 1.992 2.948 2.164 2.948 2.396C2.948 2.572 2.98 2.972 3.044 3.596C3.116 4.372 3.152 4.88 3.152 5.12C3.152 5.56 3.044 5.924 2.828 6.212C2.62 6.5 2.3 6.684 1.868 6.764V6.788C2.3 6.876 2.62 7.064 2.828 7.352C3.044 7.632 3.152 7.996 3.152 8.444C3.152 8.684 3.116 9.192 3.044 9.968C2.98 10.576 2.948 10.972 2.948 11.156C2.948 11.388 3.004 11.56 3.116 11.672C3.228 11.792 3.412 11.852 3.668 11.852H4.136V13.532H3.272C2.576 13.532 2.02 13.34 1.604 12.956C1.188 12.58 0.98 12.048 0.98 11.36C0.98 11.08 1 10.768 1.04 10.424C1.08 10.072 1.104 9.864 1.112 9.8C1.192 9.16 1.232 8.732 1.232 8.516C1.232 8.244 1.14 8.028 0.956 7.868C0.772 7.7 0.484 7.608 0.0920001 7.592V5.96ZM12.9563 2.576L10.0403 8.216V11H7.98828V8.216L5.07228 2.576H7.40028L9.03228 6.104L10.6523 2.576H12.9563ZM13.3751 7.64C13.3751 6.952 13.5031 6.348 13.7591 5.828C14.0231 5.308 14.3791 4.908 14.8271 4.628C15.2751 4.348 15.7751 4.208 16.3271 4.208C16.7991 4.208 17.2111 4.304 17.5631 4.496C17.9231 4.688 18.1991 4.94 18.3911 5.252V4.304H20.4431V11H18.3911V10.052C18.1911 10.364 17.9111 10.616 17.5511 10.808C17.1991 11 16.7871 11.096 16.3151 11.096C15.7711 11.096 15.2751 10.956 14.8271 10.676C14.3791 10.388 14.0231 9.984 13.7591 9.464C13.5031 8.936 13.3751 8.328 13.3751 7.64ZM18.3911 7.652C18.3911 7.14 18.2471 6.736 17.9591 6.44C17.6791 6.144 17.3351 5.996 16.9271 5.996C16.5191 5.996 16.1711 6.144 15.8831 6.44C15.6031 6.728 15.4631 7.128 15.4631 7.64C15.4631 8.152 15.6031 8.56 15.8831 8.864C16.1711 9.16 16.5191 9.308 16.9271 9.308C17.3351 9.308 17.6791 9.16 17.9591 8.864C18.2471 8.568 18.3911 8.164 18.3911 7.652ZM23.9796 5.42C24.2196 5.052 24.5196 4.764 24.8796 4.556C25.2396 4.34 25.6396 4.232 26.0796 4.232V6.404H25.5156C25.0036 6.404 24.6196 6.516 24.3636 6.74C24.1076 6.956 23.9796 7.34 23.9796 7.892V11H21.9276V4.304H23.9796V5.42ZM30.1084 11.096C29.4524 11.096 28.8604 10.956 28.3324 10.676C27.8124 10.396 27.4004 9.996 27.0964 9.476C26.8004 8.956 26.6524 8.348 26.6524 7.652C26.6524 6.964 26.8044 6.36 27.1084 5.84C27.4124 5.312 27.8284 4.908 28.3564 4.628C28.8844 4.348 29.4764 4.208 30.1324 4.208C30.7884 4.208 31.3804 4.348 31.9084 4.628C32.4364 4.908 32.8524 5.312 33.1564 5.84C33.4604 6.36 33.6124 6.964 33.6124 7.652C33.6124 8.34 33.4564 8.948 33.1444 9.476C32.8404 9.996 32.4204 10.396 31.8844 10.676C31.3564 10.956 30.7644 11.096 30.1084 11.096ZM30.1084 9.32C30.5004 9.32 30.8324 9.176 31.1044 8.888C31.3844 8.6 31.5244 8.188 31.5244 7.652C31.5244 7.116 31.3884 6.704 31.1164 6.416C30.8524 6.128 30.5244 5.984 30.1324 5.984C29.7324 5.984 29.4004 6.128 29.1364 6.416C28.8724 6.696 28.7404 7.108 28.7404 7.652C28.7404 8.188 28.8684 8.6 29.1244 8.888C29.3884 9.176 29.7164 9.32 30.1084 9.32ZM37.425 11.096C36.841 11.096 36.321 10.996 35.865 10.796C35.409 10.596 35.049 10.324 34.785 9.98C34.521 9.628 34.373 9.236 34.341 8.804H36.369C36.393 9.036 36.501 9.224 36.693 9.368C36.885 9.512 37.121 9.584 37.401 9.584C37.657 9.584 37.853 9.536 37.989 9.44C38.133 9.336 38.205 9.204 38.205 9.044C38.205 8.852 38.105 8.712 37.905 8.624C37.705 8.528 37.381 8.424 36.933 8.312C36.453 8.2 36.053 8.084 35.733 7.964C35.413 7.836 35.137 7.64 34.905 7.376C34.673 7.104 34.557 6.74 34.557 6.284C34.557 5.9 34.661 5.552 34.869 5.24C35.085 4.92 35.397 4.668 35.805 4.484C36.221 4.3 36.713 4.208 37.281 4.208C38.121 4.208 38.781 4.416 39.261 4.832C39.749 5.248 40.029 5.8 40.101 6.488H38.205C38.173 6.256 38.069 6.072 37.893 5.936C37.725 5.8 37.501 5.732 37.221 5.732C36.981 5.732 36.797 5.78 36.669 5.876C36.541 5.964 36.477 6.088 36.477 6.248C36.477 6.44 36.577 6.584 36.777 6.68C36.985 6.776 37.305 6.872 37.737 6.968C38.233 7.096 38.637 7.224 38.949 7.352C39.261 7.472 39.533 7.672 39.765 7.952C40.005 8.224 40.129 8.592 40.137 9.056C40.137 9.448 40.025 9.8 39.801 10.112C39.585 10.416 39.269 10.656 38.853 10.832C38.445 11.008 37.969 11.096 37.425 11.096ZM43.4444 2.12V11H41.3924V2.12H43.4444ZM44.5235 7.64C44.5235 6.952 44.6515 6.348 44.9075 5.828C45.1715 5.308 45.5275 4.908 45.9755 4.628C46.4235 4.348 46.9235 4.208 47.4755 4.208C47.9475 4.208 48.3595 4.304 48.7115 4.496C49.0715 4.688 49.3475 4.94 49.5395 5.252V4.304H51.5915V11H49.5395V10.052C49.3395 10.364 49.0595 10.616 48.6995 10.808C48.3475 11 47.9355 11.096 47.4635 11.096C46.9195 11.096 46.4235 10.956 45.9755 10.676C45.5275 10.388 45.1715 9.984 44.9075 9.464C44.6515 8.936 44.5235 8.328 44.5235 7.64ZM49.5395 7.652C49.5395 7.14 49.3955 6.736 49.1075 6.44C48.8275 6.144 48.4835 5.996 48.0755 5.996C47.6675 5.996 47.3195 6.144 47.0315 6.44C46.7515 6.728 46.6115 7.128 46.6115 7.64C46.6115 8.152 46.7515 8.56 47.0315 8.864C47.3195 9.16 47.6675 9.308 48.0755 9.308C48.4835 9.308 48.8275 9.16 49.1075 8.864C49.3955 8.568 49.5395 8.164 49.5395 7.652ZM56.088 9.08L57.54 4.304H59.724L57.348 11H54.816L52.44 4.304H54.636L56.088 9.08ZM61.5478 11.096C61.1878 11.096 60.8918 10.992 60.6598 10.784C60.4358 10.568 60.3238 10.304 60.3238 9.992C60.3238 9.672 60.4358 9.404 60.6598 9.188C60.8918 8.972 61.1878 8.864 61.5478 8.864C61.8998 8.864 62.1878 8.972 62.4118 9.188C62.6438 9.404 62.7598 9.672 62.7598 9.992C62.7598 10.304 62.6438 10.568 62.4118 10.784C62.1878 10.992 61.8998 11.096 61.5478 11.096ZM63.5665 7.64C63.5665 6.952 63.6945 6.348 63.9505 5.828C64.2145 5.308 64.5705 4.908 65.0185 4.628C65.4665 4.348 65.9665 4.208 66.5185 4.208C66.9585 4.208 67.3585 4.3 67.7185 4.484C68.0865 4.668 68.3745 4.916 68.5825 5.228V2.12H70.6345V11H68.5825V10.04C68.3905 10.36 68.1145 10.616 67.7545 10.808C67.4025 11 66.9905 11.096 66.5185 11.096C65.9665 11.096 65.4665 10.956 65.0185 10.676C64.5705 10.388 64.2145 9.984 63.9505 9.464C63.6945 8.936 63.5665 8.328 63.5665 7.64ZM68.5825 7.652C68.5825 7.14 68.4385 6.736 68.1505 6.44C67.8705 6.144 67.5265 5.996 67.1185 5.996C66.7105 5.996 66.3625 6.144 66.0745 6.44C65.7945 6.728 65.6545 7.128 65.6545 7.64C65.6545 8.152 65.7945 8.56 66.0745 8.864C66.3625 9.16 66.7105 9.308 67.1185 9.308C67.5265 9.308 67.8705 9.16 68.1505 8.864C68.4385 8.568 68.5825 8.164 68.5825 7.652ZM78.431 7.544C78.431 7.736 78.419 7.936 78.395 8.144H73.751C73.783 8.56 73.915 8.88 74.147 9.104C74.387 9.32 74.679 9.428 75.023 9.428C75.535 9.428 75.891 9.212 76.091 8.78H78.275C78.163 9.22 77.959 9.616 77.663 9.968C77.375 10.32 77.011 10.596 76.571 10.796C76.131 10.996 75.639 11.096 75.095 11.096C74.439 11.096 73.855 10.956 73.343 10.676C72.831 10.396 72.431 9.996 72.143 9.476C71.855 8.956 71.711 8.348 71.711 7.652C71.711 6.956 71.851 6.348 72.131 5.828C72.419 5.308 72.819 4.908 73.331 4.628C73.843 4.348 74.431 4.208 75.095 4.208C75.743 4.208 76.319 4.344 76.823 4.616C77.327 4.888 77.719 5.276 77.999 5.78C78.287 6.284 78.431 6.872 78.431 7.544ZM76.331 7.004C76.331 6.652 76.211 6.372 75.971 6.164C75.731 5.956 75.431 5.852 75.071 5.852C74.727 5.852 74.435 5.952 74.195 6.152C73.963 6.352 73.819 6.636 73.763 7.004H76.331ZM82.5255 9.08L83.9775 4.304H86.1615L83.7855 11H81.2535L78.8775 4.304H81.0735L82.5255 9.08ZM91.1773 7.592C90.7853 7.608 90.4973 7.7 90.3133 7.868C90.1293 8.028 90.0373 8.244 90.0373 8.516C90.0373 8.732 90.0773 9.16 90.1573 9.8C90.1653 9.864 90.1893 10.072 90.2293 10.424C90.2693 10.768 90.2893 11.08 90.2893 11.36C90.2893 12.048 90.0813 12.58 89.6653 12.956C89.2493 13.34 88.6933 13.532 87.9973 13.532H87.1333V11.852H87.6013C87.8573 11.852 88.0413 11.792 88.1533 11.672C88.2653 11.56 88.3213 11.388 88.3213 11.156C88.3213 10.972 88.2893 10.576 88.2253 9.968C88.1533 9.192 88.1173 8.684 88.1173 8.444C88.1173 7.996 88.2213 7.632 88.4293 7.352C88.6453 7.064 88.9693 6.876 89.4013 6.788V6.764C88.9693 6.684 88.6453 6.5 88.4293 6.212C88.2213 5.924 88.1173 5.56 88.1173 5.12C88.1173 4.88 88.1533 4.372 88.2253 3.596C88.2893 2.972 88.3213 2.572 88.3213 2.396C88.3213 2.164 88.2653 1.992 88.1533 1.88C88.0413 1.768 87.8573 1.712 87.6013 1.712H87.1333V0.0319996H87.9973C88.6933 0.0319996 89.2493 0.224 89.6653 0.607999C90.0813 0.983999 90.2893 1.512 90.2893 2.192C90.2893 2.472 90.2693 2.788 90.2293 3.14C90.1893 3.484 90.1653 3.688 90.1573 3.752C90.0773 4.392 90.0373 4.82 90.0373 5.036C90.0373 5.324 90.1293 5.548 90.3133 5.708C90.4973 5.86 90.7853 5.944 91.1773 5.96V7.592Z" fill="url(#paint0_linear_81_16)"/>
<defs>
<linearGradient id="paint0_linear_81_16" x1="-1" y1="7" x2="93" y2="7" gradientUnits="userSpaceOnUse">
<stop stop-color="#00A9DE"/>
<stop offset="1" stop-color="#D100C8"/>
</linearGradient>
</defs>
</svg>
