<svg width="36" height="36" viewBox="0 0 36 36" fill="none" xmlns="http://www.w3.org/2000/svg">
<path d="M18.0996 0.599609C8.43451 0.599609 0.599609 8.43451 0.599609 18.0996C0.599609 27.7647 8.43451 35.5996 18.0996 35.5996C27.7647 35.5996 35.5996 27.7647 35.5996 18.0996C35.5996 8.43451 27.7647 0.599609 18.0996 0.599609ZM13.8158 25.353H10.272V13.9488H13.8158V25.353ZM12.022 12.5488C10.9027 12.5488 10.179 11.7559 10.179 10.7751C10.179 9.77435 10.9246 9.00508 12.0676 9.00508C13.2105 9.00508 13.9105 9.77435 13.9324 10.7751C13.9324 11.7559 13.2105 12.5488 12.022 12.5488ZM26.7585 25.353H23.2147V19.0329C23.2147 17.5619 22.7007 16.5629 21.4191 16.5629C20.4402 16.5629 19.8587 17.2392 19.6017 17.89C19.5069 18.1215 19.4832 18.4496 19.4832 18.7759V25.3512H15.9376V17.5855C15.9376 16.1619 15.8921 14.9715 15.8447 13.947H18.9236L19.0858 15.5311H19.1569C19.6236 14.7874 20.7665 13.69 22.6788 13.69C25.0103 13.69 26.7585 15.2522 26.7585 18.61V25.353V25.353Z" fill="url(#paint0_linear_104_4)"/>
<defs>
<linearGradient id="paint0_linear_104_4" x1="18.0996" y1="0.599609" x2="18.0996" y2="35.5996" gradientUnits="userSpaceOnUse">
<stop stop-color="#03A6DD"/>
<stop offset="1" stop-color="#CE02C8"/>
</linearGradient>
</defs>
</svg>
