<svg width="36" height="36" viewBox="0 0 30 30" fill="none" xmlns="http://www.w3.org/2000/svg">
<path d="M14.9996 0.599609C7.04661 0.599609 0.599609 7.04661 0.599609 14.9996C0.599609 22.9526 7.04661 29.3996 14.9996 29.3996C22.9526 29.3996 29.3996 22.9526 29.3996 14.9996C29.3996 7.04661 22.9526 0.599609 14.9996 0.599609ZM11.4746 20.9681H8.55861V11.5841H11.4746V20.9681ZM9.99861 10.4321C9.07761 10.4321 8.48211 9.77961 8.48211 8.97261C8.48211 8.14911 9.09561 7.51611 10.0361 7.51611C10.9766 7.51611 11.5526 8.14911 11.5706 8.97261C11.5706 9.77961 10.9766 10.4321 9.99861 10.4321ZM22.1246 20.9681H19.2086V15.7676C19.2086 14.5571 18.7856 13.7351 17.7311 13.7351C16.9256 13.7351 16.4471 14.2916 16.2356 14.8271C16.1576 15.0176 16.1381 15.2876 16.1381 15.5561V20.9666H13.2206V14.5766C13.2206 13.4051 13.1831 12.4256 13.1441 11.5826H15.6776L15.8111 12.8861H15.8696C16.2536 12.2741 17.1941 11.3711 18.7676 11.3711C20.6861 11.3711 22.1246 12.6566 22.1246 15.4196V20.9681V20.9681Z" fill="url(#paint0_linear_104_4)"/>
<defs>
<linearGradient id="paint0_linear_104_4" x1="14.9996" y1="0.599609" x2="14.9996" y2="29.3996" gradientUnits="userSpaceOnUse">
<stop stop-color="#03A6DD"/>
<stop offset="1" stop-color="#CE02C8"/>
</linearGradient>
</defs>
</svg>
